<svg width="60" height="68" viewBox="0 0 60 68" fill="none" xmlns="http://www.w3.org/2000/svg">
<path d="M47.5 6.45993H22.5C19.7425 6.45993 17.5 8.96406 17.5 12.0433V28.7933H12.5C9.7425 28.7933 7.5 31.2974 7.5 34.3766V59.5016C7.5 60.242 7.76339 60.9521 8.23223 61.4756C8.70107 61.9991 9.33696 62.2933 10 62.2933H50C50.663 62.2933 51.2989 61.9991 51.7678 61.4756C52.2366 60.9521 52.5 60.242 52.5 59.5016V12.0433C52.5 8.96406 50.2575 6.45993 47.5 6.45993ZM12.5 34.3766H27.5V56.7099H12.5V34.3766ZM47.5 56.7099H32.5V34.3766C32.5 31.2974 30.2575 28.7933 27.5 28.7933H22.5V12.0433H47.5V56.7099Z" fill="white"/>
<path d="M47.5 6.45993H22.5C19.7425 6.45993 17.5 8.96406 17.5 12.0433V28.7933H12.5C9.7425 28.7933 7.5 31.2974 7.5 34.3766V59.5016C7.5 60.242 7.76339 60.9521 8.23223 61.4756C8.70107 61.9991 9.33696 62.2933 10 62.2933H50C50.663 62.2933 51.2989 61.9991 51.7678 61.4756C52.2366 60.9521 52.5 60.242 52.5 59.5016V12.0433C52.5 8.96406 50.2575 6.45993 47.5 6.45993ZM12.5 34.3766H27.5V56.7099H12.5V34.3766ZM47.5 56.7099H32.5V34.3766C32.5 31.2974 30.2575 28.7933 27.5 28.7933H22.5V12.0433H47.5V56.7099Z" stroke="white"/>
<path d="M27.5 17.6266H32.5V23.2099H27.5V17.6266ZM37.5 17.6266H42.5V23.2099H37.5V17.6266ZM37.5 28.8798H42.5V34.3766H37.5V28.8798ZM37.5 39.9599H42.5V45.5433H37.5V39.9599ZM17.5 39.9627H22.5V45.546H17.5V39.9627Z" fill="white"/>
</svg>
